
<!--svg width="1440px" height="202px" viewBox="0 0 1440 202" version="1.1" xmlns="http://www.w3.org/2000/svg" xmlns:xlink="http://www.w3.org/1999/xlink"-->

<!--svg width="200px" height="150px" viewBox="0 0 200 150" version="1.1" xmlns="http://www.w3.org/2000/svg" xmlns:xlink="http://www.w3.org/1999/xlink"-->
<svg width="300px" height="180px" viewBox="30 30 300 180" version="1.1" xmlns="http://www.w3.org/2000/svg" xmlns:xlink="http://www.w3.org/1999/xlink">

    <desc>Created with Sketch.</desc>
    <defs></defs>
    <g id="OZ1" stroke="none" stroke-width="1" fill="none" fill-rule="evenodd">
        <g id="Portfolio-Composition-1" transform="translate(0.000000, -748.000000)">
            <g id="Filmstrip" transform="translate(0.000000, 748.000000)">
                <g>

                    <rect id="Tile-1" stroke="#DCDCDC" fill="#FFFFFF" x="72.5" y="19.5" width="198" height="145"></rect>
                    <text id="Composition" font-family="IBMPlexSans-Medium, IBM Plex Sans" font-size="20" font-weight="400" line-spacing="24" fill="#767676">
                        <tspan x="82" y="49">Composition</tspan>
                    </text>
                    <g id="SmallComposition" transform="translate(127.000000, 62.000000)">
                        <g id="SmallKey" transform="translate(86.000000, 12.000000)">
                            <rect id="Rectangle-7" fill="#48D4BB" x="10" y="42" width="5" height="5"></rect>
                            <rect id="Rectangle-7" fill="#BB8EFF" x="10" y="26" width="5" height="5"></rect>
                            <rect id="Rectangle-7" fill="#00A68F" x="10" y="33" width="5" height="5"></rect>
                            <rect id="Rectangle-7" fill="#3C6DF0" x="10" y="17" width="5" height="5"></rect>
                            <rect id="Rectangle-7" fill="#44216A" x="10" y="8" width="5" height="5"></rect>
                            <rect id="Rectangle-7" fill="#3B1A40" x="10" y="0" width="5" height="5"></rect>
                            <path d="M1,2 L1,42" id="Divider-Line" stroke="#DFE3E6"></path>
                        </g>
                        <path d="M39.3552822,39.5076149 L3.25773196,24.185117 C7.97436873,13.0734005 17.5457155,4.75315309 29.2057083,1.62886598 L39.3552822,39.5076149 Z" id="Fill-1" fill="#00A68F"></path>
                        <path d="M39.3552753,39.5076149 L3.25773196,24.185117 C7.97435773,13.0734005 17.5456964,4.75315309 29.2056892,1.62886598 L39.3552753,39.5076149 Z" id="Stroke-3" stroke="#FFFFFF" stroke-linecap="round" stroke-linejoin="round"></path>
                        <path d="M39.061945,39.1611959 L28.9123711,1.28244691 C31.5592213,0.57323866 34.2731238,0.143421649 37.0095942,0 L39.061945,39.1611959 Z" id="Fill-4" fill="#56D2BB"></path>
                        <path d="M39.0619572,39.1611959 L28.9123711,1.28244691 C31.5592376,0.57323866 34.273132,0.143421649 37.0095861,0 L39.0619572,39.1611959 Z" id="Stroke-5" stroke="#FFFFFF" stroke-linecap="round" stroke-linejoin="round"></path>
                        <path d="M39.0927835,39.5 L78.015432,44.2791009 C77.2894057,50.1920025 75.2257954,55.8617755 71.9812165,60.8579921 L39.0927835,39.5 Z" id="Fill-6" fill="#473793"></path>
                        <path d="M39.0927835,39.5 L78.015432,44.2790928 C77.2894057,50.1919985 75.2257954,55.8617552 71.9812165,60.8579758 L39.0927835,39.5 Z" id="Stroke-7" stroke="#FFFFFF" stroke-linecap="round" stroke-linejoin="round"></path>
                        <path d="M39.1055009,39.5 L73.0666236,59.1074742 C62.2377189,77.8636949 38.2542474,84.2900518 19.4980266,73.461143 C19.1028597,73.2329919 18.7117079,72.9979628 18.3247423,72.7561617 L39.1055009,39.5 Z" id="Fill-8" fill="#3C6DF0"></path>
                        <path d="M39.1054887,39.5 L73.0666113,59.1074742 C62.2377067,77.8637031 38.2542433,84.290068 19.4980144,73.4611227 C19.1028515,73.233 18.7116794,72.9979546 18.3247423,72.7561495 L39.1054887,39.5 Z" id="Stroke-9" stroke="#FFFFFF" stroke-linecap="round" stroke-linejoin="round"></path>
                        <path d="M39.2208936,39.1614809 L19.6134194,73.122624 C2.23147168,63.0871522 -4.76733297,41.5470447 3.3962546,23.2113402 L39.2208936,39.1614809 Z" id="Fill-10" fill="#A76EFC"></path>
                        <path d="M39.2208865,39.1614809 L19.6134123,73.1226036 C2.23145768,63.0871603 -4.76733149,41.5470366 3.39625975,23.2113402 L39.2208865,39.1614809 Z" id="Stroke-11" stroke="#FFFFFF" stroke-linecap="round" stroke-linejoin="round"></path>
                        <path d="M39.1090518,39.215912 L37.056701,0.0547160915 C58.6848446,-1.07877102 77.1367606,15.5354176 78.2702477,37.1635408 C78.389725,39.4433139 78.3099106,41.7291463 78.0317003,43.9950129 L39.1090518,39.215912 Z" id="Fill-12" fill="#2A0F52"></path>
                        <path d="M39.1090722,39.215912 L37.056701,0.0547160915 C58.6848649,-1.07877102 77.1367809,15.5354176 78.270268,37.1635408 C78.3897454,39.4433017 78.3099309,41.72913 78.0317206,43.9950048 L39.1090722,39.215912 Z" id="Stroke-13" stroke="#FFFFFF" stroke-linecap="round" stroke-linejoin="round"></path>
                        <path d="M58.0466637,21.0917884 C68.2515225,31.2966044 68.2515225,47.8418487 58.0466637,58.0466605 C47.8418477,68.2515235 31.2966034,68.2515235 21.0917916,58.0466605 C10.8869286,47.8418487 10.8869286,31.2966044 21.0917916,21.0917884 C31.2966034,10.8869296 47.8418477,10.8869296 58.0466637,21.0917884" id="Fill-14" fill="#FFFFFF"></path>
                    </g>
                </g>
            </g>
        </g>
    </g>
</svg>
